HIERARCHY
ROOT hip
{
  OFFSET 0 0 0
  CHANNELS 6 Xposition Yposition Zposition Zrotation Yrotation Xrotation
  JOINT abdomen
  {
    OFFSET 0 20.6881 -0.73152
    CHANNELS 3 Zrotation Xrotation Yrotation
    JOINT chest
    {
      OFFSET 0 11.7043 -0.48768
      CHANNELS 3 Zrotation Xrotation Yrotation
      JOINT neck
      {
        OFFSET 0 22.1894 -2.19456
        CHANNELS 3 Zrotation Xrotation Yrotation
        JOINT head
        {
          OFFSET -0.24384 7.07133 1.2192
          CHANNELS 3 Zrotation Xrotation Yrotation
          JOINT leftEye
          {
            OFFSET 4.14528 8.04674 8.04672
            CHANNELS 3 Zrotation Xrotation Yrotation
            End Site
            {
              OFFSET 1 0 0
            }
          }
          JOINT rightEye
          {
            OFFSET -3.6576 8.04674 8.04672
            CHANNELS 3 Zrotation Xrotation Yrotation
            End Site
            {
              OFFSET 1 0 0
            }
          }
        }
      }
      JOINT rCollar
      {
        OFFSET -2.68224 19.2634 -4.8768
        CHANNELS 3 Zrotation Xrotation Yrotation
        JOINT rShldr
        {
          OFFSET -8.77824 -1.95073 1.46304
          CHANNELS 3 Zrotation Xrotation Yrotation
          JOINT rForeArm
          {
            OFFSET -28.1742 -1.7115 0.48768
            CHANNELS 3 Zrotation Xrotation Yrotation
            JOINT rHand
            {
              OFFSET -22.5879 0.773209 7.07136
              CHANNELS 3 Zrotation Xrotation Yrotation
              JOINT rThumb1
              {
                OFFSET -1.2192 -0.487915 3.41376
                CHANNELS 3 Zrotation Xrotation Yrotation
                JOINT rThumb2
                {
                  OFFSET -3.37035 -0.52449 3.41376
                  CHANNELS 3 Zrotation Xrotation Yrotation
                  End Site
                  {
                    OFFSET -1.78271 -1.18214 1.43049
                  }
                }
              }
              JOINT rIndex1
              {
                OFFSET -7.75947 0.938293 5.60832
                CHANNELS 3 Zrotation Xrotation Yrotation
                JOINT rIndex2
                {
                  OFFSET -2.54057 -0.884171 1.56538
                  CHANNELS 3 Zrotation Xrotation Yrotation
                  End Site
                  {
                    OFFSET -1.62519 -0.234802 1.16502
                  }
                }
              }
              JOINT rMid1
              {
                OFFSET -8.24714 1.18213 3.41376
                CHANNELS 3 Zrotation Xrotation Yrotation
                JOINT rMid2
                {
                  OFFSET -3.10165 -0.590103 1.0647
                  CHANNELS 3 Zrotation Xrotation Yrotation
                  End Site
                  {
                    OFFSET -2.48547 -0.328903 0.83742
                  }
                }
              }
              JOINT rRing1
              {
                OFFSET -8.82822 0.546677 1.51678
                CHANNELS 3 Zrotation Xrotation Yrotation
                JOINT rRing2
                {
                  OFFSET -2.60934 -0.819778 -0.0198488
                  CHANNELS 3 Zrotation Xrotation Yrotation
                  End Site
                  {
                    OFFSET -2.33842 -0.294052 0.168128
                  }
                }
              }
              JOINT rPinky1
              {
                OFFSET -8.27202 -0.0477905 -0.4584
                CHANNELS 3 Zrotation Xrotation Yrotation
                JOINT rPinky2
                {
                  OFFSET -1.82734 -0.647385 -0.700984
                  CHANNELS 3 Zrotation Xrotation Yrotation
                  End Site
                  {
                    OFFSET -1.69225 -0.51767 -0.607171
                  }
                }
              }
            }
          }
        }
      }
      JOINT lCollar
      {
        OFFSET 2.68224 19.2634 -4.8768
        CHANNELS 3 Zrotation Xrotation Yrotation
        JOINT lShldr
        {
          OFFSET 8.77824 -1.95073 1.46304
          CHANNELS 3 Zrotation Xrotation Yrotation
          JOINT lForeArm
          {
            OFFSET 28.1742 -1.7115 0.48768
            CHANNELS 3 Zrotation Xrotation Yrotation
            JOINT lHand
            {
              OFFSET 22.5879 0.773209 7.07136
              CHANNELS 3 Zrotation Xrotation Yrotation
              JOINT lThumb1
              {
                OFFSET 1.2192 -0.487915 3.41376
                CHANNELS 3 Zrotation Xrotation Yrotation
                JOINT lThumb2
                {
                  OFFSET 3.37035 -0.52449 3.41376
                  CHANNELS 3 Zrotation Xrotation Yrotation
                  End Site
                  {
                    OFFSET 1.78271 -1.18214 1.43049
                  }
                }
              }
              JOINT lIndex1
              {
                OFFSET 7.75947 0.938293 5.60832
                CHANNELS 3 Zrotation Xrotation Yrotation
                JOINT lIndex2
                {
                  OFFSET 2.54057 -0.884171 1.56538
                  CHANNELS 3 Zrotation Xrotation Yrotation
                  End Site
                  {
                    OFFSET 1.62519 -0.234802 1.16502
                  }
                }
              }
              JOINT lMid1
              {
                OFFSET 8.24714 1.18213 3.41376
                CHANNELS 3 Zrotation Xrotation Yrotation
                JOINT lMid2
                {
                  OFFSET 3.10165 -0.590103 1.0647
                  CHANNELS 3 Zrotation Xrotation Yrotation
                  End Site
                  {
                    OFFSET 2.48547 -0.328903 0.83742
                  }
                }
              }
              JOINT lRing1
              {
                OFFSET 8.82822 0.546677 1.51678
                CHANNELS 3 Zrotation Xrotation Yrotation
                JOINT lRing2
                {
                  OFFSET 2.60934 -0.819778 -0.0198488
                  CHANNELS 3 Zrotation Xrotation Yrotation
                  End Site
                  {
                    OFFSET 2.33842 -0.294052 0.168128
                  }
                }
              }
              JOINT lPinky1
              {
                OFFSET 8.27202 -0.0477905 -0.4584
                CHANNELS 3 Zrotation Xrotation Yrotation
                JOINT lPinky2
                {
                  OFFSET 1.82734 -0.647385 -0.700984
                  CHANNELS 3 Zrotation Xrotation Yrotation
                  End Site
                  {
                    OFFSET 1.69225 -0.51767 -0.607171
                  }
                }
              }
            }
          }
        }
      }
    }
  }
  JOINT rButtock
  {
    OFFSET -8.77824 4.35084 1.2192
    CHANNELS 3 Zrotation Xrotation Yrotation
    JOINT rThigh
    {
      OFFSET 0 -1.70687 -2.19456
      CHANNELS 3 Zrotation Xrotation Yrotation
      JOINT rShin
      {
        OFFSET 0 -36.8199 0.73152
        CHANNELS 3 Zrotation Xrotation Yrotation
        JOINT rFoot
        {
          OFFSET 0.73152 -45.1104 -5.12064
          CHANNELS 3 Zrotation Xrotation Yrotation
          End Site
          {
            OFFSET -1.1221 -3.69964 12.103
          }
        }
      }
    }
  }
  JOINT lButtock
  {
    OFFSET 8.77824 4.35084 1.2192
    CHANNELS 3 Zrotation Xrotation Yrotation
    JOINT lThigh
    {
      OFFSET 0 -1.70687 -2.19456
      CHANNELS 3 Zrotation Xrotation Yrotation
      JOINT lShin
      {
        OFFSET 0 -36.8199 0.73152
        CHANNELS 3 Zrotation Xrotation Yrotation
        JOINT lFoot
        {
          OFFSET -0.73152 -45.1104 -5.12064
          CHANNELS 3 Zrotation Xrotation Yrotation
          End Site
          {
            OFFSET 1.1221 -3.69964 12.103
          }
        }
      }
    }
  }
}
MOTION
Frames:	8
Frame Time:	0.00833333
111.871 84.8928 94.5797 0.0 0.0 0.0 -0.180148 -0.000587417 -0.00513799 -0.0496821 -0.0008608 -0.00860668 6.12757e-16 -1.59028e-15 9.31803e-18 1.87914e-15 3.18055e-15 3.72721e-17 -0.0 0.0 0.0 -0.0 0.0 0.0 3.46558e-16 0.0 1.98785e-16 8.31926e-15 1.98785e-16 7.95139e-16 1.12612e-13 -3.04141e-14 -2.8625e-14 1.26847e-12 4.65156e-14 4.13472e-14 2.99472e-12 3.03933e-14 6.04305e-14 5.15608e-12 5.40694e-14 1.02573e-13 2.99608e-12 3.1408e-14 4.45278e-14 7.73091 5.47488 0.417314 2.99459e-12 3.10104e-14 5.725e-14 2.90554 0.965183 0.102902 3.00272e-12 3.08116e-14 6.2816e-14 10.2786 0.731801 0.0259123 2.98853e-12 2.98177e-14 7.31528e-14 2.22167 -0.733487 -0.20892 2.49816e-16 0.0 -1.98785e-16 4.40859e-15 2.98177e-16 -3.97569e-16 1.08089e-13 3.51849e-14 3.49861e-14 1.26841e-12 -2.42766e-14 1.59028e-14 2.98837e-12 1.85148e-14 6.67917e-14 5.17397e-12 2.8625e-14 1.22451e-13 2.98416e-12 1.90833e-14 7.31528e-14 -7.73091 5.47488 -0.417314 2.98878e-12 1.82882e-14 6.36111e-14 -2.90554 0.965183 -0.102902 2.98181e-12 1.93815e-14 6.75868e-14 -10.2786 0.731801 -0.0259123 2.9931e-12 1.90833e-14 5.40694e-14 -2.22167 -0.733487 0.20892 -2.03217e-16 0.0 -3.88251e-19 0.373557 -2.84391 -0.0347136 -0.00664975 -0.401534 -0.0584287 -0.509706 3.24465 0.124534 2.03217e-16 0.0 3.88251e-19 -0.647783 -3.54407 0.0518676 0.00461065 0.866741 0.0396103 0.511851 2.67657 -0.11318
111.475 82.9658 88.8955 -177.211 7.2979 -161.463 -0.216566 -5.7372 0.403773 0.633943 0.952907 0.21612 -0.440103 5.51955 0.120667 1.1553 -9.59321 0.573037 -0.0 0.0 0.0 -0.0 0.0 0.0 2.67577e-14 1.6292e-13 -5.13536e-14 22.5888 -2.93344 -1.04965 -2.46746 -0.910495 4.05249 0.199192 9.93033 1.32117 8.54177e-10 -9.72753e-11 -1.04122e-09 1.4423e-09 -1.47561e-10 -1.81828e-09 8.54179e-10 -9.72735e-11 -1.04124e-09 7.73091 5.47488 0.417314 8.54177e-10 -9.72731e-11 -1.04123e-09 2.90554 0.965183 0.102902 8.54186e-10 -9.72731e-11 -1.04122e-09 10.2786 0.731801 0.0259123 8.54174e-10 -9.72737e-11 -1.04122e-09 2.22167 -0.733487 -0.20892 2.66733e-14 1.6292e-13 -5.1698e-14 -23.0178 5.40321 -4.79059 3.85785 -1.68569 -6.09756 -0.0844071 6.4723 -0.889041 7.3135e-11 6.86385e-10 4.31767e-10 1.3453e-10 1.19342e-09 7.4219e-10 7.31316e-11 6.86385e-10 4.31773e-10 -7.73091 5.47488 -0.417314 7.31352e-11 6.86384e-10 4.31766e-10 -2.90554 0.965183 -0.102902 7.31271e-11 6.86386e-10 4.31769e-10 -10.2786 0.731801 -0.0259123 7.31393e-11 6.86386e-10 4.3176e-10 -2.22167 -0.733487 0.20892 -2.03217e-16 0.0 -3.88251e-19 -0.0275356 -9.37773 4.1042 -0.00690321 4.87952 0.014677 -0.757194 2.38121 -6.49789 2.03217e-16 0.0 3.88251e-19 0.45376 -9.78326 -3.0844 -0.0143597 7.8096 -0.0995859 0.701483 -3.19652 1.67345
111.642 82.9707 88.7569 -177.091 7.2585 -161.527 -0.159007 -11.7976 0.849782 1.34834 1.96009 0.45356 -0.922862 11.3675 0.253103 2.58674 -19.7569 1.2349 -0.0 0.0 0.0 -0.0 0.0 0.0 5.36424e-14 3.39782e-13 -1.14472e-13 46.3507 -5.98539 -2.15047 -4.93888 -1.85919 8.34415 -0.118152 20.3857 2.85323 1.77273e-09 -2.13601e-10 -2.11475e-09 2.99461e-09 -3.26144e-10 -3.69395e-09 1.77274e-09 -2.13599e-10 -2.11476e-09 7.73091 5.47488 0.417314 1.77273e-09 -2.13597e-10 -2.11475e-09 2.90554 0.965183 0.102902 1.77274e-09 -2.13597e-10 -2.11475e-09 10.2786 0.731801 0.0259123 1.77273e-09 -2.13597e-10 -2.11475e-09 2.22167 -0.733487 -0.20892 5.35713e-14 3.39782e-13 -1.14761e-13 -46.3331 11.062 -10.0599 7.57227 -3.41946 -12.5992 0.0501436 13.2491 -1.85916 2.29661e-10 1.54255e-09 9.142e-10 4.13964e-10 2.67891e-09 1.56965e-09 2.29658e-10 1.54255e-09 9.14205e-10 -7.73091 5.47488 -0.417314 2.29661e-10 1.54255e-09 9.14202e-10 -2.90554 0.965183 -0.102902 2.29651e-10 1.54255e-09 9.14204e-10 -10.2786 0.731801 -0.0259123 2.29665e-10 1.54255e-09 9.14199e-10 -2.22167 -0.733487 0.20892 -2.03217e-16 0.0 -3.88251e-19 0.608428 -16.1659 8.71889 -0.0220588 10.4645 0.0932555 -1.23278 1.46894 -13.5053 2.03217e-16 0.0 3.88251e-19 0.849024 -16.3181 -6.55422 0.00350579 15.1492 -0.253361 1.29855 -9.38852 3.58149
111.828 82.9726 88.6772 -176.95 7.1178 -161.47 -0.0340097 -17.2068 1.27249 1.97872 2.86027 0.666313 -1.39262 16.5584 0.375913 4.11033 -28.7673 1.93381 -0.0 0.0 0.0 -0.0 0.0 0.0 7.95799e-14 4.8876e-13 -1.54458e-13 67.4408 -8.78844 -3.18221 -7.01886 -2.67689 12.1694 -0.951733 29.7226 4.49672 2.55654e-09 -2.91887e-10 -3.1238e-09 4.31659e-09 -4.42791e-10 -5.45504e-09 2.55655e-09 -2.91883e-10 -3.12381e-09 7.73091 5.47488 0.417314 2.55654e-09 -2.91881e-10 -3.1238e-09 2.90554 0.965183 0.102902 2.55655e-09 -2.91881e-10 -3.1238e-09 10.2786 0.731801 0.0259123 2.55654e-09 -2.91881e-10 -3.1238e-09 2.22167 -0.733487 -0.20892 7.95203e-14 4.88759e-13 -1.54696e-13 -66.2855 15.7483 -14.8784 10.5143 -4.82843 -18.3522 0.379948 19.3976 -2.80973 2.13428e-10 2.05912e-09 1.29517e-09 3.93242e-10 3.58021e-09 2.22632e-09 2.13427e-10 2.05912e-09 1.29517e-09 -7.73091 5.47488 -0.417314 2.13428e-10 2.05912e-09 1.29517e-09 -2.90554 0.965183 -0.102902 2.13418e-10 2.05912e-09 1.29517e-09 -10.2786 0.731801 -0.0259123 2.13432e-10 2.05912e-09 1.29517e-09 -2.22167 -0.733487 0.20892 -2.03217e-16 0.0 -3.88251e-19 2.17071 -21.9795 13.1913 -0.0488806 15.4416 0.166745 -1.84326 0.659335 -19.7268 2.03217e-16 0.0 3.88251e-19 0.475904 -22.0 -9.95338 0.0551784 21.6949 -0.403802 2.20756 -14.8829 5.42104
111.944 82.9764 88.5866 -177.058 7.167 -161.561 0.0762639 -20.9913 1.58872 2.41488 3.4931 0.816649 -1.77658 20.1069 0.460997 5.38454 -34.9058 2.52096 -0.0 0.0 0.0 -0.0 0.0 0.0 1.03149e-13 5.68028e-13 -1.36615e-13 82.0641 -10.9791 -4.01347 -8.39119 -3.21955 14.8171 -1.94747 36.3264 5.93137 3.00348e-09 -2.7507e-10 -3.97164e-09 5.06275e-09 -4.04602e-10 -6.92968e-09 3.00348e-09 -2.75067e-10 -3.97165e-09 7.73091 5.47488 0.417314 3.00348e-09 -2.75064e-10 -3.97164e-09 2.90554 0.965183 0.102902 3.00349e-09 -2.75064e-10 -3.97164e-09 10.2786 0.731801 0.0259123 3.00348e-09 -2.75063e-10 -3.97164e-09 2.22167 -0.733487 -0.20892 1.03097e-13 5.68026e-13 -1.36814e-13 -79.9277 18.484 -18.0418 12.2905 -5.65445 -22.1735 0.76228 23.9926 -3.58626 -2.347e-10 1.72669e-09 1.42247e-09 -3.77867e-10 3.02102e-09 2.45603e-09 -2.34702e-10 1.72669e-09 1.42247e-09 -7.73091 5.47488 -0.417314 -2.347e-10 1.72669e-09 1.42247e-09 -2.90554 0.965183 -0.102902 -2.34711e-10 1.72669e-09 1.42247e-09 -10.2786 0.731801 -0.0259123 -2.34696e-10 1.72669e-09 1.42247e-09 -2.22167 -0.733487 0.20892 -2.03217e-16 0.0 -3.88251e-19 3.85627 -25.7946 16.561 -0.0753449 18.8989 0.221543 -2.38386 0.0724235 -23.9903 2.03217e-16 0.0 3.88251e-19 -0.246863 -25.7852 -12.6395 0.113799 26.2559 -0.521515 3.11581 -18.6885 6.91671
112.146 82.9833 88.4378 -177.159 7.2416 -161.811 0.063846 -22.4896 1.72817 2.58931 3.74965 0.881366 -2.02156 21.346 0.47746 6.03978 -37.0158 2.76557 -0.0 0.0 0.0 -0.0 0.0 0.0 1.27426e-13 5.41103e-13 -1.49287e-14 87.7346 -12.429 -4.56124 -8.88384 -3.41007 15.7975 -2.51699 39.2995 6.67651 2.98044e-09 -1.05345e-10 -4.69085e-09 5.00267e-09 -1.16697e-10 -8.17101e-09 2.98044e-09 -1.05342e-10 -4.69086e-09 7.73091 5.47488 0.417314 2.98044e-09 -1.05339e-10 -4.69085e-09 2.90554 0.965183 0.102902 2.98045e-09 -1.0534e-10 -4.69085e-09 10.2786 0.731801 0.0259123 2.98044e-09 -1.05339e-10 -4.69085e-09 2.22167 -0.733487 -0.20892 1.27379e-13 5.41101e-13 -1.50987e-14 -85.6135 18.9118 -18.5666 12.7595 -5.82123 -23.2792 0.995221 26.337 -4.00848 -1.47468e-09 -1.00428e-10 1.14905e-09 -2.52359e-09 -1.07334e-10 2.01334e-09 -1.47469e-09 -1.0043e-10 1.14906e-09 -7.73091 5.47488 -0.417314 -1.47468e-09 -1.0043e-10 1.14906e-09 -2.90554 0.965183 -0.102902 -1.47469e-09 -1.0043e-10 1.14906e-09 -10.2786 0.731801 -0.0259123 -1.47468e-09 -1.00428e-10 1.14906e-09 -2.22167 -0.733487 0.20892 -2.03217e-16 0.0 -3.88251e-19 4.63517 -27.1136 17.8667 -0.0871232 20.2277 0.245963 -2.66131 -0.277914 -25.4826 2.03217e-16 0.0 3.88251e-19 -0.691018 -27.0564 -14.0054 0.142079 28.0355 -0.574828 3.66639 -20.1674 7.84738
112.264 82.9851 88.3302 -177.226 7.2546 -161.849 -0.0586385 -22.3562 1.7296 2.57831 3.73757 0.88467 -2.16162 20.936 0.442576 6.17276 -36.2523 2.70813 -0.0 0.0 0.0 -0.0 0.0 0.0 1.52018e-13 4.38735e-13 1.79841e-13 87.0342 -13.3467 -4.8997 -8.77412 -3.35926 15.5853 -2.56407 39.6923 6.76514 2.62163e-09 1.7266e-10 -5.31356e-09 4.36673e-09 3.48006e-10 -9.2377e-09 2.62164e-09 1.72661e-10 -5.31357e-09 7.73091 5.47488 0.417314 2.62163e-09 1.72664e-10 -5.31356e-09 2.90554 0.965183 0.102902 2.62164e-09 1.72662e-10 -5.31356e-09 10.2786 0.731801 0.0259123 2.62163e-09 1.72663e-10 -5.31355e-09 2.22167 -0.733487 -0.20892 1.51974e-13 4.38734e-13 1.79692e-13 -85.7348 17.7356 -17.1582 12.3471 -5.55005 -22.4377 1.05409 27.0828 -4.14129 -3.27135e-09 -2.98061e-09 5.91574e-10 -5.63574e-09 -5.04583e-09 1.09393e-09 -3.27136e-09 -2.98061e-09 5.91591e-10 -7.73091 5.47488 -0.417314 -3.27135e-09 -2.98061e-09 5.91581e-10 -2.90554 0.965183 -0.102902 -3.27136e-09 -2.98061e-09 5.91581e-10 -10.2786 0.731801 -0.0259123 -3.27135e-09 -2.98061e-09 5.91579e-10 -2.22167 -0.733487 0.20892 -2.03217e-16 0.0 -3.88251e-19 4.50984 -26.7431 17.5584 -0.0848274 20.0362 0.247149 -2.70443 -0.477072 -24.9961 2.03217e-16 0.0 3.88251e-19 -0.726117 -26.5906 -14.3126 0.137864 27.8286 -0.575872 3.85023 -20.0002 8.32316
112.409 82.9858 88.2315 -177.194 7.2792 -161.816 -0.205809 -21.5929 1.66195 2.48815 3.6214 0.859794 -2.25031 19.883 0.396915 6.08293 -34.3678 2.54869 -0.0 0.0 0.0 -0.0 0.0 0.0 1.70298e-13 3.19947e-13 3.67236e-13 83.7824 -13.8767 -5.1262 -8.43192 -3.21665 14.9145 -2.34517 38.8272 6.51953 2.12587e-09 4.62351e-10 -5.74239e-09 3.50055e-09 8.30721e-10 -9.96618e-09 2.12588e-09 4.6235e-10 -5.74241e-09 7.73091 5.47488 0.417314 2.12587e-09 4.62353e-10 -5.74239e-09 2.90554 0.965183 0.102902 2.12588e-09 4.6235e-10 -5.74239e-09 10.2786 0.731801 0.0259123 2.12587e-09 4.62351e-10 -5.74238e-09 2.22167 -0.733487 -0.20892 1.7025e-13 3.19946e-13 3.67095e-13 -83.5671 15.7094 -15.0115 11.5446 -5.08523 -20.7828 1.04035 27.3318 -4.17527 -4.99119e-09 -5.79225e-09 -6.58536e-12 -8.61595e-09 -9.86921e-09 1.03252e-10 -4.9912e-09 -5.79225e-09 -6.56243e-12 -7.73091 5.47488 -0.417314 -4.99119e-09 -5.79226e-09 -6.57856e-12 -2.90554 0.965183 -0.102902 -4.99119e-09 -5.79226e-09 -6.57903e-12 -10.2786 0.731801 -0.0259123 -4.99118e-09 -5.79226e-09 -6.58298e-12 -2.22167 -0.733487 0.20892 -2.03217e-16 0.0 -3.88251e-19 4.04874 -25.7191 16.6303 -0.0769061 19.238 0.238124 -2.62908 -0.57505 -23.7641 2.03217e-16 0.0 3.88251e-19 -0.560789 -25.4874 -14.1103 0.120568 26.8325 -0.554942 3.8312 -19.1866 8.52195
